<svg width="36" height="36" viewBox="0 0 36 36" fill="none" xmlns="http://www.w3.org/2000/svg">
<path fill-rule="evenodd" clip-rule="evenodd" d="M16 20C11.5817 20 8 16.4182 8 12V0H12C14.3894 0 16.5341 1.04736 18 2.7085C19.4659 1.04736 21.6106 0 24 0H28V12C28 16.4182 24.4183 20 20 20H16ZM16 16C13.7909 16 12 14.2092 12 12V4C14.2091 4 16 5.79077 16 8V16ZM20 16C22.2091 16 24 14.2092 24 12V4C21.7909 4 20 5.79077 20 8V16Z" fill="#00AC8C"/>
<path d="M16 24C18.2091 24 20 25.7908 20 28V36C17.7909 36 16 34.2092 16 32V24Z" fill="#00AC8C"/>
<path d="M4 20C4 17.7908 2.20914 16 0 16V28C0 32.4182 3.58173 36 8 36H12V28C12 25.7908 10.2091 24 8 24V32C5.79086 32 4 30.2092 4 28V20Z" fill="#00AC8C"/>
<path d="M32 20C32 17.7908 33.7909 16 36 16V28C36 32.4182 32.4183 36 28 36H24V28C24 25.7908 25.7909 24 28 24V32C30.2091 32 32 30.2092 32 28V20Z" fill="#00AC8C"/>
</svg>
