<svg width="150" height="36" viewBox="0 0 150 36" fill="none" xmlns="http://www.w3.org/2000/svg">
<path fill-rule="evenodd" clip-rule="evenodd" d="M8 12C8 16.4183 11.5817 20 16 20H20C24.4183 20 28 16.4183 28 12V0H24C21.6106 0 19.4659 1.04749 18 2.70837C16.5341 1.04749 14.3894 0 12 0H8V12ZM12 12C12 14.2092 13.7909 16 16 16V8C16 5.79083 14.2091 4 12 4V12ZM24 12C24 14.2092 22.2091 16 20 16V8C20 5.79083 21.7909 4 24 4V12Z" fill="#00AC8C"/>
<path d="M20 28C20 25.7908 18.2091 24 16 24V32C16 34.2092 17.7909 36 20 36V28Z" fill="#00AC8C"/>
<path d="M4 20C4 17.7908 2.20914 16 0 16V28C0 32.4183 3.58173 36 8 36H12V28C12 25.7908 10.2091 24 8 24V32C6.13615 32 4.57005 30.7252 4.12602 29H4V20Z" fill="#00AC8C"/>
<path d="M36 16C33.7909 16 32 17.7908 32 20V29H31.874C31.4299 30.7252 29.8638 32 28 32V24C25.7909 24 24 25.7908 24 28V36H28C32.4183 36 36 32.4183 36 28V16Z" fill="#00AC8C"/>
<path d="M128 23L132 21V18L128 20V23Z" fill="#00AC8C"/>
<path fill-rule="evenodd" clip-rule="evenodd" d="M136 30C136 33.3137 133.314 36 130 36C126.686 36 124 33.3137 124 30C124 26.6863 126.686 24 130 24C133.314 24 136 26.6863 136 30ZM132 30C132 31.1046 131.105 32 130 32C128.895 32 128 31.1046 128 30C128 28.8954 128.895 28 130 28C131.105 28 132 28.8954 132 30Z" fill="#00AC8C"/>
<path d="M58 0H54V16H58V0Z" fill="#00AC8C"/>
<path d="M74 0H78V16H74V0Z" fill="#00AC8C"/>
<path fill-rule="evenodd" clip-rule="evenodd" d="M88 20H92V36C90.978 36 90.0456 35.6168 89.3385 34.9861C88.3841 35.6265 87.2357 36 86 36C82.6863 36 80 33.3137 80 30C80 26.6863 82.6863 24 86 24C86.7013 24 87.3744 24.1203 88 24.3414V20ZM86 28C87.1046 28 88 28.8954 88 30C88 31.1046 87.1046 32 86 32C84.8954 32 84 31.1046 84 30C84 28.8954 84.8954 28 86 28Z" fill="#00AC8C"/>
<path fill-rule="evenodd" clip-rule="evenodd" d="M103.339 25.0139C102.384 24.3735 101.236 24 100 24C96.6863 24 94 26.6863 94 30C94 33.3137 96.6863 36 100 36C101.236 36 102.384 35.6265 103.339 34.9861C104.046 35.6168 104.978 36 106 36V24C104.978 24 104.046 24.3832 103.339 25.0139ZM102 30C102 31.1046 101.105 32 100 32C98.8954 32 98 31.1046 98 30C98 28.8954 98.8954 28 100 28C101.105 28 102 28.8954 102 30Z" fill="#00AC8C"/>
<path fill-rule="evenodd" clip-rule="evenodd" d="M66 4C67.2357 4 68.3841 4.37354 69.3385 5.01385C70.0456 4.38324 70.978 4 72 4V16C70.978 16 70.0456 15.6168 69.3385 14.9861C68.3841 15.6265 67.2357 16 66 16C62.6863 16 60 13.3137 60 10C60 6.68628 62.6863 4 66 4ZM66 12C67.1046 12 68 11.1046 68 10C68 8.89545 67.1046 8 66 8C64.8954 8 64 8.89545 64 10C64 11.1046 64.8954 12 66 12Z" fill="#00AC8C"/>
<path d="M52 24H56V30C56 31.1046 56.8954 32 58 32C59.1046 32 60 31.1046 60 30V24H64V30C64 33.3137 61.3137 36 58 36C54.6863 36 52 33.3137 52 30V24Z" fill="#00AC8C"/>
<path d="M84 2C84 3.10455 83.1046 4 82 4C80.8954 4 80 3.10455 80 2C80 0.895447 80.8954 0 82 0C83.1046 0 84 0.895447 84 2Z" fill="#00AC8C"/>
<path d="M84 6V16H80V6H84Z" fill="#00AC8C"/>
<path d="M120 24C121.105 24 122 23.1046 122 22C122 20.8954 121.105 20 120 20C118.895 20 118 20.8954 118 22C118 23.1046 118.895 24 120 24Z" fill="#00AC8C"/>
<path d="M122 36V26H118V36H122Z" fill="#00AC8C"/>
<path d="M142 36V30C142 28.8954 142.895 28 144 28C145.105 28 146 28.8954 146 30V36H150V30C150 26.6863 147.314 24 144 24C142.764 24 141.616 24.3735 140.661 25.0139C139.954 24.3832 139.022 24 138 24V36H142Z" fill="#00AC8C"/>
<path d="M70 30V36H66V24C67.022 24 67.9544 24.3832 68.6614 25.0139C69.6159 24.3735 70.7643 24 72 24C75.3137 24 78 26.6863 78 30V36H74V30C74 28.8954 73.1046 28 72 28C70.8954 28 70 28.8954 70 30Z" fill="#00AC8C"/>
<path d="M114 24H116V28H114C112.895 28 112 28.8954 112 30C112 31.1046 112.895 32 114 32H116V36H114C110.686 36 108 33.3137 108 30C108 26.6863 110.686 24 114 24Z" fill="#00AC8C"/>
<path d="M44 0C41.7909 0 40 1.79083 40 4H44V16H48V4C50.2091 4 52 2.20917 52 0H44Z" fill="#00AC8C"/>
<path d="M44 20C41.7909 20 40 21.7908 40 24V36H44V31C46.2091 31 48 29.2092 48 27H44V24H48C50.2091 24 52 22.2092 52 20H44Z" fill="#00AC8C"/>
</svg>
