<svg width="150" height="36" viewBox="0 0 150 36" fill="none" xmlns="http://www.w3.org/2000/svg">
<path fill-rule="evenodd" clip-rule="evenodd" d="M16 20C11.5817 20 8 16.4182 8 12V0H12C14.3894 0 16.5341 1.04736 18 2.7085C19.4659 1.04736 21.6106 0 24 0H28V12C28 16.4182 24.4183 20 20 20H16ZM16 16C13.7909 16 12 14.2092 12 12V4C14.2091 4 16 5.79077 16 8V16ZM20 16C22.2091 16 24 14.2092 24 12V4C21.7909 4 20 5.79077 20 8V16Z" fill="#00AC8C"/>
<path d="M16 24C18.2091 24 20 25.7908 20 28V36C17.7909 36 16 34.2092 16 32V24Z" fill="#00AC8C"/>
<path d="M0 16C2.20914 16 4 17.7908 4 20V28C4 30.2092 5.79086 32 8 32V24C10.2091 24 12 25.7908 12 28V36H8C3.58173 36 0 32.4182 0 28V16Z" fill="#00AC8C"/>
<path d="M32 20C32 17.7908 33.7909 16 36 16V28C36 32.4182 32.4183 36 28 36H24V28C24 25.7908 25.7909 24 28 24V32C30.2091 32 32 30.2092 32 28V20Z" fill="#00AC8C"/>
<path d="M132 21L128 23V20L132 18V21Z" fill="#00AC8C"/>
<path fill-rule="evenodd" clip-rule="evenodd" d="M130 36C133.314 36 136 33.3137 136 30C136 26.6863 133.314 24 130 24C126.686 24 124 26.6863 124 30C124 33.3137 126.686 36 130 36ZM130 32C131.105 32 132 31.1045 132 30C132 28.8955 131.105 28 130 28C128.895 28 128 28.8955 128 30C128 31.1045 128.895 32 130 32Z" fill="#00AC8C"/>
<path d="M54 0H58V16H54V0Z" fill="#00AC8C"/>
<path d="M78 0H74V16H78V0Z" fill="#00AC8C"/>
<path fill-rule="evenodd" clip-rule="evenodd" d="M92 20H88V24.3413C87.3745 24.1204 86.7013 24 86 24C82.6863 24 80 26.6863 80 30C80 33.3137 82.6863 36 86 36C87.2357 36 88.3841 35.6265 89.3386 34.9861C90.0456 35.6167 90.978 36 92 36V20ZM88 30C88 28.8955 87.1046 28 86 28C84.8954 28 84 28.8955 84 30C84 31.1045 84.8954 32 86 32C87.1046 32 88 31.1045 88 30Z" fill="#00AC8C"/>
<path fill-rule="evenodd" clip-rule="evenodd" d="M100 24C101.236 24 102.384 24.3735 103.339 25.0139C104.046 24.3833 104.978 24 106 24V36C104.978 36 104.046 35.6167 103.339 34.9861C102.384 35.6265 101.236 36 100 36C96.6863 36 94 33.3137 94 30C94 26.6863 96.6863 24 100 24ZM100 32C101.105 32 102 31.1045 102 30C102 28.8955 101.105 28 100 28C98.8954 28 98 28.8955 98 30C98 31.1045 98.8954 32 100 32Z" fill="#00AC8C"/>
<path fill-rule="evenodd" clip-rule="evenodd" d="M69.3386 5.01392C68.3841 4.37354 67.2357 4 66 4C62.6863 4 60 6.68628 60 10C60 13.3137 62.6863 16 66 16C67.2357 16 68.3841 15.6265 69.3386 14.9861C70.0456 15.6167 70.978 16 72 16V4C70.978 4 70.0456 4.3833 69.3386 5.01392ZM68 10C68 11.1045 67.1046 12 66 12C64.8954 12 64 11.1045 64 10C64 8.89551 64.8954 8 66 8C67.1046 8 68 8.89551 68 10Z" fill="#00AC8C"/>
<path d="M56 24H52V30C52 33.3137 54.6863 36 58 36C61.3137 36 64 33.3137 64 30V24H60V30C60 31.1045 59.1046 32 58 32C56.8954 32 56 31.1045 56 30V24Z" fill="#00AC8C"/>
<path d="M82 4C83.1046 4 84 3.10449 84 2C84 0.895508 83.1046 0 82 0C80.8954 0 80 0.895508 80 2C80 3.10449 80.8954 4 82 4Z" fill="#00AC8C"/>
<path d="M84 16V6H80V16H84Z" fill="#00AC8C"/>
<path d="M122 22C122 23.1045 121.105 24 120 24C118.895 24 118 23.1045 118 22C118 20.8955 118.895 20 120 20C121.105 20 122 20.8955 122 22Z" fill="#00AC8C"/>
<path d="M122 26V36H118V26H122Z" fill="#00AC8C"/>
<path d="M142 30V36H138V24C139.022 24 139.954 24.3833 140.661 25.0139C141.616 24.3735 142.764 24 144 24C147.314 24 150 26.6863 150 30V36H146V30C146 28.8955 145.105 28 144 28C142.895 28 142 28.8955 142 30Z" fill="#00AC8C"/>
<path d="M70 36V30C70 28.8955 70.8954 28 72 28C73.1046 28 74 28.8955 74 30V36H78V30C78 26.6863 75.3137 24 72 24C70.7643 24 69.6159 24.3735 68.6614 25.0139C67.9544 24.3833 67.022 24 66 24V36H70Z" fill="#00AC8C"/>
<path d="M116 24H114C110.686 24 108 26.6863 108 30C108 33.3137 110.686 36 114 36H116V32H114C112.895 32 112 31.1045 112 30C112 28.8955 112.895 28 114 28H116V24Z" fill="#00AC8C"/>
<path d="M40 4C40 1.79077 41.7909 0 44 0H52C52 2.20923 50.2091 4 48 4V16H44V4H40Z" fill="#00AC8C"/>
<path d="M40 24C40 21.7908 41.7909 20 44 20H52C52 22.2092 50.2091 24 48 24H44V27H48C48 29.2092 46.2091 31 44 31V36H40V24Z" fill="#00AC8C"/>
</svg>
