<svg width="180" height="180" viewBox="0 0 180 180" fill="none" xmlns="http://www.w3.org/2000/svg">
<path fill-rule="evenodd" clip-rule="evenodd" d="M80 100C57.9086 100 40 82.0914 40 60V0H60C71.9469 0 82.6706 5.23755 90 13.5418C97.3294 5.23755 108.053 0 120 0H140V60C140 82.0914 122.091 100 100 100H80ZM80 80C68.9543 80 60 71.0457 60 60V20C71.0457 20 80 28.9543 80 40V80ZM100 80C111.046 80 120 71.0457 120 60V20C108.954 20 100 28.9543 100 40V80Z" fill="currentColor"/>
<path d="M80 120C91.0457 120 100 128.954 100 140V180C88.9543 180 80 171.046 80 160V120Z" fill="currentColor"/>
<path d="M20 100C20 88.9543 11.0457 80 0 80V140C0 162.091 17.9086 180 40 180H60V140C60 128.954 51.0457 120 40 120V160C28.9543 160 20 151.046 20 140V100Z" fill="currentColor"/>
<path d="M180 80C168.954 80 160 88.9543 160 100V140C160 151.046 151.046 160 140 160V120C128.954 120 120 128.954 120 140V180H140C162.091 180 180 162.091 180 140V80Z" fill="currentColor"/>
</svg>
